<svg xmlns="http://www.w3.org/2000/svg" width="211.005" height="40.003" viewBox="0 0 211.005 40.003"><g id="Group_118" data-name="Group 118" transform="translate(-689 -7743.999)"><g id="Group_75" data-name="Group 75" transform="translate(689 7743.999)"><path id="Path_124" data-name="Path 124" d="M7.213,7.572,0,20.918H20.836c-.384-.3-.767-.605-1.179-.9C13.729,15.728,9.651,11.689,7.213,7.572" transform="translate(0 19.07)" fill="#fa7921"></path><path id="Path_125" data-name="Path 125" d="M9.973,9.2c-.676.106-.813.292-.813.3s-.063,1.151,4.155,3.9a20.217,20.217,0,0,1,4.2,3.582H30.468C21.8,11.029,13.147,8.714,9.973,9.2" transform="translate(23.069 23.012)" fill="#fa7921"></path><path id="Path_126" data-name="Path 126" d="M23.8,12.619,17.425.8,11.289,5.874c1.731,2.245,6,5.067,12.512,6.745" transform="translate(28.431 2.007)" fill="#fa7921"></path><path id="Path_127" data-name="Path 127" d="M24.517,24.6a2,2,0,0,1,1.443-1.671c3.7-1.411,14.918,1.97,24.773,9.349h9.275L52.767,18.854c-6.8-4.43-12.244-3.515-18.3-2.488a45.43,45.43,0,0,1-8.536.908C19.3,17.221,13.522,9.449,9.884,3.063L2.344,17.014c2.206,4.243,6.277,8.4,12.476,12.881a36.507,36.507,0,0,1,2.952,2.378H32.138a20,20,0,0,0-2.649-2.055c-3.508-2.287-5.133-4.127-4.972-5.622" transform="translate(5.903 7.714)" fill="#fa7921"></path><path id="Path_128" data-name="Path 128" d="M19.807,23.169a48.475,48.475,0,0,0,8.219-.883C33.5,21.357,38.779,20.467,45,23.542l-3.652-6.773C34.036,15.189,28.6,12.142,26.257,9.06l-5.542,4.588L9.576,0,4.78,8.874c4.088,7.417,9.676,14.253,15.027,14.3" transform="translate(12.038 0)" fill="#fa7921"></path><path id="Path_129" data-name="Path 129" d="M7.213,7.572,0,20.918H20.836c-.384-.3-.767-.605-1.179-.9C13.729,15.728,9.651,11.689,7.213,7.572" transform="translate(0 19.07)" fill="#fa7921"></path><path id="Path_130" data-name="Path 130" d="M60.008,32.274,52.767,18.855c-6.8-4.43-12.244-3.515-18.3-2.491a45.134,45.134,0,0,1-8.536.911C19.3,17.219,13.522,9.45,9.884,3.064L2.344,17.011C4.55,21.258,8.621,25.413,14.82,29.9a35.828,35.828,0,0,1,2.948,2.378H32.138a20,20,0,0,0-2.649-2.055c-3.508-2.287-5.133-4.127-4.972-5.622a2,2,0,0,1,1.439-1.671c3.708-1.411,14.918,1.97,24.773,9.349Z" transform="translate(5.903 7.717)" fill="#fa7921"></path><path id="Path_131" data-name="Path 131" d="M9.16,9.5c0,.007-.063,1.151,4.159,3.9a20.282,20.282,0,0,1,4.2,3.582H30.471C21.795,11.029,13.15,8.714,9.973,9.2c-.676.106-.813.292-.813.3" transform="translate(23.069 23.012)" fill="#fa7921"></path><path id="Path_132" data-name="Path 132" d="M17.422.8,11.289,5.874c1.728,2.245,6,5.067,12.508,6.745Z" transform="translate(28.431 2.007)" fill="#fa7921"></path><path id="Path_133" data-name="Path 133" d="M19.807,23.169a48.475,48.475,0,0,0,8.219-.883C33.5,21.357,38.779,20.467,45,23.542l-3.652-6.773C34.036,15.189,28.6,12.142,26.257,9.06l-5.542,4.588L9.576,0,4.78,8.874c4.088,7.417,9.676,14.253,15.027,14.3" transform="translate(12.038 0)" fill="#fa7921"></path><path id="Path_134" data-name="Path 134" d="M45.853,2.8l6.379,11.822c-6.509-1.675-10.781-4.5-12.512-6.741ZM21.614,0,32.753,13.652l5.542-4.588c2.34,3.079,7.783,6.126,15.091,7.705l3.656,6.773c-6.221-3.072-11.5-2.181-16.977-1.256a48.394,48.394,0,0,1-8.216.883c-5.355-.042-10.939-6.879-15.031-14.3ZM0,39.991,7.213,26.645C9.651,30.762,13.729,34.8,19.661,39.09c.412.3.8.6,1.175.9Zm40.592,0a20.323,20.323,0,0,0-4.2-3.582c-4.219-2.751-4.159-3.895-4.159-3.9s.141-.19.816-.3c3.174-.486,11.819,1.83,20.5,7.779Zm16.044,0c-9.855-7.378-21.069-10.759-24.773-9.349a2.011,2.011,0,0,0-1.443,1.671c-.162,1.5,1.467,3.335,4.972,5.622a19.817,19.817,0,0,1,2.653,2.055H23.676a37.053,37.053,0,0,0-2.948-2.378c-6.2-4.483-10.27-8.638-12.476-12.885l7.54-13.947c3.635,6.386,9.415,14.155,16.044,14.211a45.2,45.2,0,0,0,8.536-.911c6.059-1.024,11.5-1.939,18.3,2.491l7.241,13.419Z" transform="translate(0 0)" fill="#fa7921"></path><path id="Path_135" data-name="Path 135" d="M32.307,16.746h3.635V4.727H40.98V.691H27.265V4.727h5.042Z" transform="translate(68.665 1.74)" fill="#fcfffc"></path><path id="Path_136" data-name="Path 136" d="M40.623,10.536h4.458v6.21h3.631V.691H45.081V6.88H40.623V.691H36.971V16.746h3.652Z" transform="translate(93.109 1.74)" fill="#fcfffc"></path><path id="Path_137" data-name="Path 137" d="M25.638,16.746h5.957q2.961,0,2.959-2.811V.691H30.919V12.077a.56.56,0,0,1-.633.633H26.971a.562.562,0,0,1-.637-.633V.691H22.682V13.934q0,2.813,2.955,2.811" transform="translate(57.124 1.74)" fill="#fcfffc"></path><path id="Path_138" data-name="Path 138" d="M42.543,16.746V12.71h-5.7a.56.56,0,0,1-.633-.633V5.36a.56.56,0,0,1,.633-.633H42.5V.691H35.447q-2.9,0-2.9,2.938V13.934q0,2.813,2.9,2.811Z" transform="translate(81.978 1.74)" fill="#fcfffc"></path><path id="Path_139" data-name="Path 139" d="M36.226,16.461h5.492v-3.4H36.226v-2.28h6.358V6.806H32.549V22.861H42.626V18.825h-6.4Z" transform="translate(81.973 17.141)" fill="#fcfffc"></path><path id="Path_140" data-name="Path 140" d="M45.7,6.806H42.04V22.861h9.465V18.825H45.7Z" transform="translate(105.877 17.142)" fill="#fcfffc"></path><path id="Path_141" data-name="Path 141" d="M60.074,15.194,54.962,6.806H51.454V22.861H55.11v-8.49l5.556,8.49h3.061V6.806H60.074Z" transform="translate(129.585 17.141)" fill="#fcfffc"></path><path id="Path_142" data-name="Path 142" d="M55.234,6.806H49.277q-2.961,0-2.959,2.811V22.861h3.635V19.923h2.3v-3.4h-2.3V11.475a.56.56,0,0,1,.633-.633H53.9a.562.562,0,0,1,.637.633V22.861h3.652V9.617q0-2.813-2.956-2.811" transform="translate(116.65 17.141)" fill="#fcfffc"></path><path id="Path_143" data-name="Path 143" d="M33.85,17.622,31.524,6.806H27.386l3.888,16.055h4.94L40.25,6.806h-3.93Z" transform="translate(68.971 17.142)" fill="#fcfffc"></path><path id="Path_144" data-name="Path 144" d="M65.394,6.806H56.668v9.655h3.656V10.842H64a.56.56,0,0,1,.633.633v6.717a.56.56,0,0,1-.633.633H56.714v4.036h8.68q2.892,0,2.9-2.938V9.617q0-2.813-2.9-2.811" transform="translate(142.716 17.141)" fill="#fcfffc"></path><path id="Path_145" data-name="Path 145" d="M31.6,6.806H25.644q-2.961,0-2.959,2.811v6.843h3.652V11.345a.541.541,0,0,1,.616-.5h3.314a.562.562,0,0,1,.637.633v5.95h.018v.767a.56.56,0,0,1-.633.633H26.974a.921.921,0,0,1-.183-.025v4.06H31.6q2.961,0,2.959-2.811V9.617q0-2.813-2.956-2.811" transform="translate(57.131 17.141)" fill="#fcfffc"></path><path id="Path_146" data-name="Path 146" d="M48.637,21.89V17.136a2.451,2.451,0,0,0-.433-1.52,2.28,2.28,0,0,0-1.383-.781q1.773-.317,1.773-2.495V9.807q0-3-2.917-3H37.04v3.93h7.332a.559.559,0,0,1,.63.633v1.119a.561.561,0,0,1-.63.637H37.04v9.736H40.7V16.524h3.677a.559.559,0,0,1,.63.633v4.859a3.257,3.257,0,0,0,.032.5,2.97,2.97,0,0,0,.074.348h3.635q-.042-.169-.074-.359a4.16,4.16,0,0,1-.032-.612" transform="translate(93.284 17.141)" fill="#fcfffc"></path><path id="Path_147" data-name="Path 147" d="M21.6,9.009V4.727H25.28a.56.56,0,0,1,.633.633v6.717a.56.56,0,0,1-.633.633H18.028L20.2,16.746h6.47q2.9,0,2.9-2.934V3.5q0-2.813-2.9-2.811H17.951v9.655H21.6Z" transform="translate(45.209 1.74)" fill="#fcfffc"></path></g></g></svg>