<?xml version="1.0" encoding="UTF-8" standalone="no"?>
<svg xmlns="http://www.w3.org/2000/svg" width="25" height="41" viewBox="0 0 25 41">
  <g>
    <path d="m 12.5,1 c -6.573,0 -12.044,5.691 -12.044,11.866 0,2.778 1.564,6.308 2.694,8.746 l 9.306,17.872 9.262,-17.872 c 1.13,-2.438 2.738,-5.791 2.738,-8.746 0,-6.175 -5.383,-11.866 -11.956,-11.866 z" style="fill:#2ecc40;stroke:#27ae60;stroke-width:1.1;stroke-linecap:round"/>
    <path d="m 12.5,2.1 c -5.944,0 -10.938,5.219 -10.938,10.75 0,2.359 1.443,5.832 2.563,8.25 l 0.031,0.031 8.313,15.969 8.25,-15.969 0.031,-0.031 c 1.135,-2.448 2.625,-5.706 2.625,-8.25 0,-5.538 -4.931,-10.75 -10.875,-10.75 z" style="fill:none;stroke:#ffffff;stroke-width:1.1;stroke-linecap:round;stroke-opacity:0.122"/>
  </g>
</svg>